<?xml version="1.0" encoding="UTF-8"?>
<svg id="Calque_1" xmlns="http://www.w3.org/2000/svg" version="1.1" viewBox="0 0 4644.68 2559.37">
  <!-- Generator: Adobe Illustrator 29.3.1, SVG Export Plug-In . SVG Version: 2.1.0 Build 151)  -->
  <defs>
    <style>
      .st0 {
        fill: none;
        stroke: #223c47;
        stroke-miterlimit: 10;
        stroke-width: .5px;
      }
    </style>
  </defs>
  <path class="st0" d="M4313.82,575.05c885.56,871.78-243.39,1050.52-649.49,1451.55-622.58,614.81-1564.02,727.8-2563.29,178.07C101.77,1654.94-248.95,1278.69,180.2,798.09,1310.23-467.41,3749.72,19.74,4313.82,575.05Z"/>
  <path class="st0" d="M3570.16,619.71c558.08,549.4-32.87,889.02-258.67,1078.12-225.81,189.1-1120.5,443.95-1750.24,97.5-629.74-346.44-850.77-583.56-580.31-886.43C1693.08,111.37,3214.66,269.75,3570.16,619.71Z"/>
  <path class="st0" d="M3277.53,882.46c507.35,440.25,20.17,661.56-162.76,790.39-182.93,128.83-1312.06,319.54-1869.69,26.83-557.64-292.71-799.06-743.32-584.11-954.62,566.01-556.39,2293.38-143.03,2616.56,137.4Z"/>
</svg>