<?xml version="1.0" encoding="UTF-8"?>
<svg width="640" height="640" version="1.1" viewBox="0 0 169.33 169.33" xmlns="http://www.w3.org/2000/svg"
   fill="currentColor">
   <g transform="matrix(1.0581 0 0 -1.0581 159.29 79.623)">
      <path
         d="m0 0c-1.086 18.29-7.644 40.043-28.865 55.941 13.967-2.101 18.276-8.539 23.136-16.803 4.466-7.595 8.062-22.806 5.729-39.138m-71.818-82.679c-24.455-0.804-41.459 5.41-53.518 19.508-11.596 13.557-17.409 33.723-21.948 51.561-7.719 30.341 5.106 50.147 17.224 61.419 14.791 13.759 36.329 21.815 55.557 21.815 0.999 0 1.989-0.03 2.974-0.074-2.92-0.796-5.661-1.692-8.143-2.658-20.98-8.17-34.384-15.234-41.93-33.752-4.936-12.111-10.206-62.763 8.874-84.506 11.102-12.651 26.343-18.12 43.942-19.985 37.291-3.951 55.104 19.641 65.337 39.851-5.755-27.152-19.022-51.589-68.369-53.179m64.361 60.099c-20.276-36.631-53.299-31.664-71.206-24.758-17.907 6.907-35.73 18.36-30.209 54.433s32.79 47.842 61.95 49.385c6.363 0.336 11.599 0.228 15.966-0.263 23.981-17.125 29.889-41.628 30.118-60.94-1.278-5.99-3.403-12.046-6.619-17.857m-60.981 94.914c-20.881 1.915-45.765-6.41-62.303-21.793-17.41-16.194-23.629-38.354-17.512-62.397 4.566-17.947 10.421-38.244 22.158-51.966 11.584-13.543 27.609-19.924 50.216-19.924 1.34 0 2.706 0.022 4.094 0.067 24.2 0.78 41.569 7.096 53.101 19.307 10.745 11.378 14.712 26.438 16.951 38.368 2.659 5.582 4.768 10.751 6.593 14.799 11.288 25.039 0.397 54.612-16.157 75.181-10.578 13.143-37.157 13.128-57.141 8.358" />
   </g>
</svg>