<?xml version="1.0" encoding="UTF-8"?>
<svg version="1.1" viewBox="0 0 169.33 68.792" xmlns="http://www.w3.org/2000/svg" fill="currentColor">
    <defs>
        <clipPath id="clipPath18">
            <path d="M 0,850.394 H 850.394 V 0 H 0 Z" />
        </clipPath>
    </defs>
    <g transform="matrix(.43023 0 0 -.43023 -98.167 217.22)" clip-path="url(#clipPath18)">
        <g transform="translate(378.72 429.19)">
            <path
                d="m0 0c-1.086 18.29-7.644 40.043-28.865 55.941 13.967-2.101 18.276-8.539 23.136-16.803 4.466-7.595 8.062-22.806 5.729-39.138m-71.818-82.679c-24.455-0.804-41.459 5.41-53.518 19.508-11.596 13.557-17.409 33.723-21.948 51.561-7.719 30.341 5.106 50.147 17.224 61.419 14.791 13.759 36.329 21.815 55.557 21.815 0.999 0 1.989-0.03 2.974-0.074-2.92-0.796-5.661-1.692-8.143-2.658-20.98-8.17-34.384-15.234-41.93-33.752-4.936-12.111-10.206-62.763 8.874-84.506 11.102-12.651 26.343-18.12 43.942-19.985 37.291-3.951 55.104 19.641 65.337 39.851-5.755-27.152-19.022-51.589-68.369-53.179m64.361 60.099c-20.276-36.631-53.299-31.664-71.206-24.758-17.907 6.907-35.73 18.36-30.209 54.433s32.79 47.842 61.95 49.385c6.363 0.336 11.599 0.228 15.966-0.263 23.981-17.125 29.889-41.628 30.118-60.94-1.278-5.99-3.403-12.046-6.619-17.857m-60.981 94.914c-20.881 1.915-45.765-6.41-62.303-21.793-17.41-16.194-23.629-38.354-17.512-62.397 4.566-17.947 10.421-38.244 22.158-51.966 11.584-13.543 27.609-19.924 50.216-19.924 1.34 0 2.706 0.022 4.094 0.067 24.2 0.78 41.569 7.096 53.101 19.307 10.745 11.378 14.712 26.438 16.951 38.368 2.659 5.582 4.768 10.751 6.593 14.799 11.288 25.039 0.397 54.612-16.157 75.181-10.578 13.143-37.157 13.128-57.141 8.358" />
        </g>
        <g transform="translate(423.8 442.49)">
            <path
                d="m0 0c8.694-6.491 27.399-4.73 29.111 7.879 0.795 12.249-11.186 13.383-19.941 16.094-6.527 1.94-7.482 8.133-0.882 10.412 2.404 0.828 5.388 0.751 7.769-0.132 3.07-0.72 8.628-5.977 10.327-2.638 0.813 2.513-2.03 5.313-4.103 6.684-8.766 6.011-27.5 2.391-25.462-10.529 1.841-10.266 15.719-9.43 22.292-13.668 4.189-2.636 3.682-8.073-0.713-10.227-11.521-5.665-11.768 14.255-21.797 3.741l-0.06-0.071c-1.663-2.44 1.372-5.966 3.459-7.545" />
        </g>
        <g transform="translate(552.66 440.07)">
            <path
                d="m0 0c2.895 0.793 5.418 4.05 8.229 2.153 1.681-1.098 4.219-3.679 5.684-0.791 0.455 0.874 0.554 2.063 0.571 3.16 0.031 6.839 5e-3 21.746 0.013 30.418 8e-3 3.211 0.087 5.434-0.866 6.616-1.797 2.224-4.779 1.217-5.415-3.079-0.318-2.507-0.154-5.285-0.194-7.952-0.134-6.886 0.718-15.039-2.234-19.578-3.798-7.101-14.333-7.815-18.46-0.684-2.361 3.72-2.212 8.201-2.256 12.486-0.06 4.661 0.123 10.643-0.108 15.099-0.072 4.649-4.587 7.092-6.05 1.485-0.426-1.849-0.295-4.609-0.32-7.703 0.066-5.531-0.194-12.108 0.266-16.962l0.019-0.17c0.94-10.92 10.265-18.398 21.121-14.498" />
        </g>
        <g transform="translate(613.06 440.94)">
            <path
                d="m0 0c11.536 5.769 11.765 22.392-0.278 25.2-4.91 1.792-16.768-0.228-17.977 5.249-0.475 5.395 8.081 7.24 12.283 5.357 2.694-0.909 5.742-3.152 7.751-3.631 2.763-0.716 3.357 1.915 2.089 4.023-5.488 8.466-20.675 8.397-26.944 1.401-5.855-7.583-0.011-15.84 8.43-17.833 4.792-1.535 9.512-2.084 12.651-4.845 2.203-1.953 2.692-4.948 0.921-7.344-2.399-3.149-7.135-3.965-10.922-3.37-3.788 0.565-6.418 2.937-9.045 4.448-1.294 0.715-3.177 1.744-4.387 0.513l-0.06-0.071c-1.221-1.499 0.112-4.275 1.525-5.723 5.641-6.366 16.761-6.772 23.963-3.374" />
        </g>
        <g transform="translate(456.77 384.83)">
            <path
                d="m0 0c-1.509-4.38-4.882-7.186-8.783-8.828-6.094-2.598-13.426-2.153-16.081 6.098-1.458 4.042-1.662 8.581-0.597 12.677l0.052 0.193c1.296 4.675 3.893 8.121 7.592 9.766 5.302 2.061 11.393 1.363 15.449-3.461 3.319-4.277 4.172-11.337 2.368-16.445m-23.699 24.215c-2.322-1.385-3.708-2.729-4.408-2.317-0.61 0.301-0.745 1.961-0.723 4.634 2e-3 3.084 0.329 7.261 0.21 10.108-0.09 1.819-0.549 3.175-1.227 4.019-1.763 2.18-4.703 1.11-4.968-1.313-0.333-11.336-0.696-40.56-0.722-52.802 0.165-1.948 1.69-2.991 3.216-2.091 1.502 0.811 2.579 2.579 3.901 3.509l0.06 0.032c1.782 0.527 3.073-1.353 6.008-2.684 1.853-0.931 4.021-1.659 6.224-1.998 11.644-1.796 21.836 6.578 23.058 18.659 2.329 18.251-14.116 31.73-30.629 22.244" />
        </g>
        <g transform="translate(571.1 372.65)">
            <path
                d="m0 0-0.095 0.073c-3.462 2.633-9.1 0.569-12.125 2.763-0.902 0.893-0.889 2.209-0.952 3.478-0.265 7.726 0.452 22.682-0.314 30.43-0.983 2.846-5.806 1.8-8.786 2.049-3.358-0.061-8.637 0.419-10.435-2.038-0.46-0.821 0.196-1.739 1.68-2.412 2.096-1.081 5.494-0.973 7.771-1.331 2.324-0.281 3.261-1.845 3.283-4.014 0.132-6.107 0.04-16.316 0.041-22.146-0.033-1.078-0.072-2.202-0.443-3.1-1.242-2.678-5.621-1.825-8.399-2.179-2.192-0.224-4.652-0.711-5.744-2.341-0.962-2.638 3.126-3.102 5.067-3.055 6.348-0.016 18.362-0.01 24.828-3e-3 3.344-0.258 7.283 1.548 4.623 3.826" />
        </g>
        <g transform="translate(549.91 422)">
            <path
                d="m0 0-2e-3 -0.194c-0.093-3.427 3.81-5.731 6.816-4.193 2.653 1.155 3.421 4.976 1.649 7.185-2.587 3.402-8.493 1.551-8.463-2.798" />
        </g>
        <g transform="translate(600.2 395.36)">
            <path
                d="m0 0c-5.717 1.665-7.714 7.134-1.942 9.985 2.661 1.27 6.074 1.304 8.829 0.296 2.694-0.908 5.742-3.152 7.751-3.631 1.277-0.328 2.224 0.025 2.576 0.992 0.843 3.41-3.365 6.54-6.219 7.858-10.862 5.19-29.104-5.943-20.936-19.551 4.554-6.694 15.415-1.899 20.806-6.553 2.203-1.953 2.691-4.948 0.92-7.344-2.399-3.149-7.135-3.965-10.922-3.37-3.788 0.565-6.418 2.937-9.045 4.448-1.294 0.715-3.177 1.744-4.387 0.513l-0.06-0.071c-1.222-1.499 0.112-4.275 1.525-5.723 5.641-6.365 16.762-6.771 23.963-3.373 7.475 3.141 9.673 13.322 3.653 18.976-4.106 4.093-11.456 4.729-16.512 6.548" />
        </g>
        <g transform="translate(478.12 451.36)">
            <path
                d="m0 0c-2.885 5.406-2.04 13.233 1.507 18.321 2.995 4.372 7.831 6.603 12.996 7.452 8.08 1.36 16.849-0.859 17.872-10.4 0.691-4.71-0.27-9.66-2.651-13.831l-0.114-0.196c-2.815-4.743-6.881-7.848-11.803-8.748-6.976-0.969-14.173 1.229-17.807 7.402m22.097-11.766c8.016 4.295 13.235 14.18 13.782 23.244 0.151 6.226-2.16 12.899-6.541 17.337l-0.133 0.127c-7.909 7.168-22.183 3.542-30.028-2.258-7.664-5.414-8.101-16.502-6.261-25.599 2.459-13.568 17.629-18.433 29.181-12.851" />
        </g>
        <g transform="translate(512.62 381.24)">
            <path
                d="m0 0c-2.996-4.372-7.831-6.603-12.996-7.452-8.08-1.36-16.849 0.859-17.872 10.4-0.691 4.71 0.269 9.66 2.651 13.831l0.113 0.196c2.816 4.743 6.882 7.848 11.803 8.748 6.977 0.969 14.174-1.229 17.808-7.402 2.885-5.406 2.04-13.233-1.507-18.321m-20.591 30.087c-8.015-4.295-13.234-14.18-13.781-23.244-0.151-6.226 2.16-12.898 6.54-17.337l0.134-0.127c7.909-7.168 23.583-4.943 31.428 0.858 7.664 5.414 8.101 16.502 6.261 25.599-2.459 13.568-19.029 19.833-30.582 14.251" />
        </g>
    </g>
</svg>